<svg width="60" height="60" viewBox="0 0 60 60" fill="none" xmlns="http://www.w3.org/2000/svg">
<path d="M27.9751 5.625C27.3251 5.625 26.6751 5.775 26.0501 6L7.65008 13.625C6.42698 14.1259 5.45285 15.0919 4.94186 16.3108C4.43086 17.5297 4.42482 18.9017 4.92508 20.125L17.3251 50C17.6913 50.9061 18.3152 51.6851 19.1194 52.2405C19.9236 52.7959 20.873 53.1034 21.8501 53.125C22.5001 53.125 23.1751 53.05 23.8251 52.75L42.2501 45.125C43.1394 44.7476 43.9017 44.1231 44.4468 43.3254C44.9918 42.5278 45.2966 41.5906 45.3251 40.625C45.3501 40 45.2251 39.275 45.0001 38.625L32.5001 8.75C32.1467 7.83505 31.5261 7.04765 30.7191 6.49029C29.912 5.93293 28.9559 5.63142 27.9751 5.625ZM36.6751 5.625L45.3001 26.5V10.625C45.3001 9.29892 44.7733 8.02715 43.8356 7.08947C42.8979 6.15178 41.6262 5.625 40.3001 5.625M50.3251 9.475V32.05L56.4001 17.4C56.6491 16.7944 56.7762 16.1456 56.774 15.4908C56.7718 14.836 56.6403 14.1881 56.3871 13.5842C56.134 12.9803 55.7641 12.4324 55.2987 11.9718C54.8333 11.5111 54.2815 11.1469 53.6751 10.9M27.9751 10.55L40.4251 40.6L21.9501 48.25L9.50008 18.225" fill="black"/>
</svg>
