<svg width="139" height="139" viewBox="0 0 139 139" fill="none" xmlns="http://www.w3.org/2000/svg">
<circle cx="69.5" cy="69.5" r="69.5" fill="white"/>
<path d="M66.9751 45.625C66.3251 45.625 65.6751 45.775 65.0501 46L46.6501 53.625C45.427 54.1259 44.4529 55.0919 43.9419 56.3108C43.4309 57.5297 43.4248 58.9017 43.9251 60.125L56.3251 90C56.6913 90.9061 57.3152 91.6851 58.1194 92.2405C58.9236 92.7959 59.873 93.1034 60.8501 93.125C61.5001 93.125 62.1751 93.05 62.8251 92.75L81.2501 85.125C82.1394 84.7476 82.9017 84.1231 83.4468 83.3254C83.9918 82.5278 84.2966 81.5906 84.3251 80.625C84.3501 80 84.2251 79.275 84.0001 78.625L71.5001 48.75C71.1467 47.835 70.5261 47.0477 69.7191 46.4903C68.912 45.9329 67.9559 45.6314 66.9751 45.625ZM75.6751 45.625L84.3001 66.5V50.625C84.3001 49.2989 83.7733 48.0271 82.8356 47.0895C81.8979 46.1518 80.6262 45.625 79.3001 45.625M89.3251 49.475V72.05L95.4001 57.4C95.6491 56.7944 95.7762 56.1456 95.774 55.4908C95.7718 54.836 95.6403 54.1881 95.3871 53.5842C95.134 52.9803 94.7641 52.4324 94.2987 51.9718C93.8333 51.5111 93.2815 51.1469 92.6751 50.9M66.9751 50.55L79.4251 80.6L60.9501 88.25L48.5001 58.225" fill="black"/>
</svg>
