<svg width="60" height="60" viewBox="0 0 60 60" fill="none" xmlns="http://www.w3.org/2000/svg">
<path d="M47.5 22.5V25C47.4951 29.2046 45.9765 33.2669 43.222 36.4437C40.4676 39.6205 36.6615 41.6993 32.5 42.3V50H40V55H20V50H27.5V42.3C23.3385 41.6993 19.5324 39.6205 16.778 36.4437C14.0235 33.2669 12.5049 29.2046 12.5 25V22.5H17.5V25C17.5 28.3152 18.817 31.4946 21.1612 33.8388C23.5054 36.183 26.6848 37.5 30 37.5C33.3152 37.5 36.4946 36.183 38.8388 33.8388C41.183 31.4946 42.5 28.3152 42.5 25V22.5H47.5ZM30 32.5C31.9891 32.5 33.8968 31.7098 35.3033 30.3033C36.7098 28.8968 37.5 26.9891 37.5 25V12.5C37.5 10.5109 36.7098 8.60322 35.3033 7.1967C33.8968 5.79018 31.9891 5 30 5C28.0109 5 26.1032 5.79018 24.6967 7.1967C23.2902 8.60322 22.5 10.5109 22.5 12.5V25C22.5 26.9891 23.2902 28.8968 24.6967 30.3033C26.1032 31.7098 28.0109 32.5 30 32.5Z" fill="black"/>
</svg>
