<svg width="60" height="60" viewBox="0 0 60 60" fill="none" xmlns="http://www.w3.org/2000/svg">
<path d="M23.125 55L22.125 47C21.5833 46.7917 21.0725 46.5417 20.5925 46.25C20.1125 45.9583 19.6442 45.6458 19.1875 45.3125L11.75 48.4375L4.875 36.5625L11.3125 31.6875C11.2708 31.3958 11.25 31.1142 11.25 30.8425V29.1575C11.25 28.8858 11.2708 28.6042 11.3125 28.3125L4.875 23.4375L11.75 11.5625L19.1875 14.6875C19.6458 14.3542 20.125 14.0417 20.625 13.75C21.125 13.4583 21.625 13.2083 22.125 13L23.125 5H36.875L37.875 13C38.4167 13.2083 38.9275 13.4583 39.4075 13.75C39.8875 14.0417 40.3558 14.3542 40.8125 14.6875L48.25 11.5625L55.125 23.4375L48.6875 28.3125C48.7292 28.6042 48.75 28.8858 48.75 29.1575V30.8425C48.75 31.1142 48.7083 31.3958 48.625 31.6875L55.0625 36.5625L48.1875 48.4375L40.8125 45.3125C40.3542 45.6458 39.875 45.9583 39.375 46.25C38.875 46.5417 38.375 46.7917 37.875 47L36.875 55H23.125ZM30.125 38.75C32.5417 38.75 34.6042 37.8958 36.3125 36.1875C38.0208 34.4792 38.875 32.4167 38.875 30C38.875 27.5833 38.0208 25.5208 36.3125 23.8125C34.6042 22.1042 32.5417 21.25 30.125 21.25C27.6667 21.25 25.5933 22.1042 23.905 23.8125C22.2167 25.5208 21.3733 27.5833 21.375 30C21.375 32.4167 22.2183 34.4792 23.905 36.1875C25.5917 37.8958 27.665 38.75 30.125 38.75ZM30.125 33.75C29.0833 33.75 28.1975 33.385 27.4675 32.655C26.7375 31.925 26.3733 31.04 26.375 30C26.375 28.9583 26.74 28.0725 27.47 27.3425C28.2 26.6125 29.085 26.2483 30.125 26.25C31.1667 26.25 32.0525 26.615 32.7825 27.345C33.5125 28.075 33.8767 28.96 33.875 30C33.875 31.0417 33.51 31.9275 32.78 32.6575C32.05 33.3875 31.165 33.7517 30.125 33.75ZM27.5 50H32.4375L33.3125 43.375C34.6042 43.0417 35.8025 42.5517 36.9075 41.905C38.0125 41.2583 39.0225 40.4775 39.9375 39.5625L46.125 42.125L48.5625 37.875L43.1875 33.8125C43.3958 33.2292 43.5417 32.615 43.625 31.97C43.7083 31.325 43.75 30.6683 43.75 30C43.75 29.3333 43.7083 28.6775 43.625 28.0325C43.5417 27.3875 43.3958 26.7725 43.1875 26.1875L48.5625 22.125L46.125 17.875L39.9375 20.5C39.0208 19.5417 38.0108 18.74 36.9075 18.095C35.8042 17.45 34.6058 16.96 33.3125 16.625L32.5 10H27.5625L26.6875 16.625C25.3958 16.9583 24.1983 17.4483 23.095 18.095C21.9917 18.7417 20.9808 19.5225 20.0625 20.4375L13.875 17.875L11.4375 22.125L16.8125 26.125C16.6042 26.75 16.4583 27.375 16.375 28C16.2917 28.625 16.25 29.2917 16.25 30C16.25 30.6667 16.2917 31.3125 16.375 31.9375C16.4583 32.5625 16.6042 33.1875 16.8125 33.8125L11.4375 37.875L13.875 42.125L20.0625 39.5C20.9792 40.4583 21.99 41.2608 23.095 41.9075C24.2 42.5542 25.3975 43.0433 26.6875 43.375L27.5 50Z" fill="black"/>
</svg>
